<svg xmlns="http://www.w3.org/2000/svg" width="307" height="63"><style>.st0{fill:#fff}.st4{fill:#2e2e2e}</style><path class="st0" d="M203.1 32.3c-1.1-.6-2.6-1.2-4.7-1.8-1.7-.5-3-1-3.7-1.6-.6-.4-.8-.9-.8-1.6 0-.8.3-1.3.9-1.8.7-.6 1.8-.8 3.1-.8 1.4 0 2.4.3 3.2 1 .7.6 1.1 1.4 1.1 2.5v1.3h4.4v-1.3c0-1.4-.4-2.8-1.1-4-.7-1.2-1.8-2.1-3.1-2.8-1.3-.6-2.8-1-4.4-1-2.4 0-4.4.6-5.9 1.8-1.7 1.3-2.5 3-2.5 5 0 2.1.9 3.9 2.7 5.1 1.2.8 2.9 1.6 5.2 2.2 2.5.7 3.6 1.3 4.1 1.7.5.4.8 1 .8 1.8s-.3 1.4-1 1.9c-.8.6-1.9.8-3.2.8-1.6 0-2.8-.3-3.7-1-.8-.6-1.2-1.4-1.2-2.5v-1.3h-4.4v1.3c0 1.5.4 2.9 1.2 4.1.8 1.2 1.9 2.1 3.4 2.7 1.4.6 3 .9 4.7.9 2.5 0 4.5-.6 6.1-1.8 1.7-1.3 2.5-3 2.5-5.1 0-1.3-.3-2.5-1-3.5-.6-.7-1.5-1.5-2.7-2.2z"/><path class="st0" d="M221.6 39.9v-7.5c0-2-.7-3.5-2-4.6-1.3-1.1-2.9-1.7-5-1.7-2 0-3.7.6-5.1 1.7-1.5 1.2-2.3 2.6-2.3 4.3v1.3h4.4V32c0-.3.1-.7.7-1.2.6-.4 1.3-.7 2.2-.7 1 0 1.7.2 2.2.6.3.2.6.7.6 1.7v.6h-1.9c-2.6 0-4.6.5-6.1 1.6-1.6 1.1-2.5 2.8-2.5 4.7 0 1.7.6 3.1 1.8 4.2 1.2 1.1 2.7 1.6 4.6 1.6 1.2 0 2.4-.3 3.6-.8.3-.1.6-.3.9-.5l.3 1h4.1v-1.7l-.1-.2c-.2-.5-.4-1.3-.4-3zm-4.3-1.1c-.3.6-.8 1.1-1.4 1.5-.7.4-1.5.7-2.5.7-.7 0-1.3-.2-1.7-.5-.4-.3-.5-.7-.5-1.2 0-.6.3-1.1.9-1.5.8-.5 1.9-.7 3.4-.8h1.8v1.8zM231.9 26.1c-1.3 0-2.5.3-3.6.9-.1.1-.2.1-.3.2v-.9h-4.2v18.4h4.3V32.9c.3-.8.8-1.5 1.4-2 .6-.5 1.3-.7 2.1-.7.9 0 1.5.2 1.8.6.4.4.6 1.2.6 2.3v11.7h4.3V33.1c0-2.2-.5-4-1.6-5.2-1.1-1.2-2.7-1.8-4.8-1.8zM263 40.8c-.8.1-1.1.1-1.2.1-.3 0-.5-.1-.5-.1-.1-.1-.2-.4-.2-1.2v-9.3h3.3v-4H261v-4.1h-4.4v4.1h-2.9v3.1c-.3-.5-.7-1-1.2-1.5-1.4-1.3-3.1-1.9-5.2-1.9-1.6 0-3.1.4-4.3 1.2-1.2.8-2.2 1.9-2.8 3.3-.6 1.4-.9 2.9-.9 4.7v.5c0 2.7.7 5 2.1 6.7 1.5 1.7 3.5 2.6 5.9 2.6 1.2 0 2.4-.3 3.5-.8s2-1.3 2.7-2.3c.7-1 1.1-2.1 1.1-3.3l.1-1.4h-4.3l-.1 1.2c0 .7-.3 1.3-.9 1.8-.6.5-1.3.7-2.2.7-1.2 0-2-.4-2.7-1.2-.7-.9-1-2.2-1-3.9v-.5c0-1.8.3-3.1 1-4 .6-.8 1.5-1.2 2.7-1.2.9 0 1.6.3 2.2.8.6.5.9 1.2.9 2.1l.1 1.2h4.3l-.1-1.4c0-.9-.2-1.8-.5-2.6h2.4v9.3c0 1.6.4 3 1.1 3.9.8 1 2 1.5 3.6 1.5 1 0 1.7-.1 2.3-.3l.9-.3-.2-3.8-1.2.3zM275.5 38.9c-.4 1-1.1 2.1-3.5 2.1-1.2 0-2.4-.4-2.4-3.2V26.4h-4.3V38c0 2.2.6 4 1.7 5.2 1.1 1.3 2.8 1.9 4.8 1.9 1.5 0 2.7-.3 3.8-.8v.5h4.3V26.4h-4.4v12.5zM300 26.1c-1.4 0-2.6.3-3.8 1-.5.3-1 .6-1.4 1.1-.9-1.1-2.4-2-5-2-1.3 0-2.5.3-3.6.9-.1.1-.2.1-.3.2v-.8h-4.3v18.4h4.4v-12c.3-.9.7-1.6 1.3-2 .6-.4 1.2-.7 2-.7.9 0 1.6.2 2 .6.4.4.6 1.1.6 2.1v11.9h4.4V33.1c.1-.8.4-1.4 1-2 .6-.6 1.4-.9 2.3-.9.7 0 1.5.1 2 .6.4.4.6 1.2.6 2.3v11.7h4.4V32.9c-.1-4.4-2.4-6.8-6.6-6.8zM173.6 19.3v11.5c-.4-1-.9-1.8-1.6-2.5-1.6-1.7-3.7-2.6-6.4-2.6-1.8 0-3.3.4-4.7 1.3-1 .6-1.8 1.4-2.5 2.4l1.1-3.3h-8.1l-1.6 6-1.6-6H140l.7 2.1-.5-.5c-1.5-1.3-3.4-1.9-5.8-1.9-1.5 0-2.9.3-4.2.8-.8.4-1.6.8-2.2 1.4v-1.5l-1.2-.4c-.6-.2-1.2-.3-1.8-.3-.6 0-1.3.1-2 .4v-.1h-7.3v5.4c-.3-1.5-1-2.8-2.2-3.8-1.5-1.3-3.4-1.9-5.8-1.9-1.5 0-2.9.3-4.2.8-1.3.6-2.4 1.4-3.1 2.4-.8 1.1-1.2 2.3-1.2 3.5v1.7h1.8c-1.2 1-2 2.5-2.1 4.2h-7.6V20.5h-7.8v24.7h17.1v-1.8l.3.3c1.3 1.2 3 1.8 5 1.8 1.2 0 2.2-.2 3.2-.7l.2.4h13.9V33.6c.2-.2.6-.4 1.4-.4.3 0 .7 0 1.2.1v.8h1.8c-1.4 1.2-2.2 2.9-2.2 4.9 0 1.8.7 3.5 2.1 4.7 1.3 1.2 3 1.8 5 1.8 1.2 0 2.2-.2 3.2-.7l.2.4h7v-2.4l-.2-.4c-.2-.3-.4-1-.4-2.6v-6.5l4 11.9h6.5l3.6-10.6V36c0 2.8.9 5.2 2.7 6.9 1.8 1.7 4.1 2.6 6.9 2.6 1.6 0 3-.3 4.3-.9 1.3-.6 2.3-1.5 3.1-2.5v3.1h7.6V19.3h-7.4z"/><circle class="st0" cx="31.5" cy="31.5" r="9.5"/><circle cx="31.5" cy="31.5" r="8" fill="#1c5872"/><path class="st0" d="M20.6 63c-3.1 0-6-1.2-8.1-3.4l-9.1-9.1C1.2 48.3 0 45.4 0 42.4V38h5.5c.3 0 .5-.2.5-.5s-.2-.5-.5-.5H0V26h5.5c.3 0 .5-.2.5-.5s-.2-.5-.5-.5H0v-4.4c0-3.1 1.2-6 3.4-8.1l9.1-9.1C14.7 1.2 17.6 0 20.6 0H31v15h-8.9L15 22.1v18.8l7.1 7.1H31v15H20.6z"/><linearGradient id="SVGID_1_" gradientUnits="userSpaceOnUse" x1="15.5" y1="63.5" x2="15.5" y2="3.5" gradientTransform="matrix(1 0 0 -1 0 65)"><stop offset="0" stop-color="#7be7ee"/><stop offset="1" stop-color="#18caf1"/></linearGradient><path d="M20.6 1.5h8.9v12h-8l-8 8v20.1l8 8h8v12h-8.9c-2.7 0-5.2-1.1-7.1-2.9l-9.1-9.1c-1.9-1.9-2.9-4.4-2.9-7.1v-2.9h4c1.1 0 2-.9 2-2s-.9-2-2-2h-4v-8h4c1.1 0 2-.9 2-2s-.9-2-2-2h-4v-2.9c0-2.7 1.1-5.2 2.9-7.1l9.1-9.1c1.9-1.9 4.5-3 7.1-3z" fill="url(#SVGID_1_)"/><path class="st0" d="M32 63V48h8.9l7.1-7.1V22.1L40.9 15H32V0h10.4c3.1 0 6 1.2 8.1 3.4l9.1 9.1c2.2 2.2 3.4 5.1 3.4 8.1V25h-5.5c-.3 0-.5.2-.5.5s.2.5.5.5H63v11h-5.5c-.3 0-.5.2-.5.5s.2.5.5.5H63v4.4c0 3.1-1.2 6-3.4 8.1l-9.1 9.1c-2.2 2.2-5.1 3.4-8.1 3.4H32z"/><linearGradient id="SVGID_00000052813150282423585190000006779284605935669923_" gradientUnits="userSpaceOnUse" x1="47.5" y1="63.5" x2="47.5" y2="3.5" gradientTransform="matrix(1 0 0 -1 0 65)"><stop offset="0" stop-color="#7be7ee"/><stop offset="1" stop-color="#18caf1"/></linearGradient><path d="M33.5 61.5v-12h8l8-8v-20l-8-8h-8v-12h8.9c2.7 0 5.2 1.1 7.1 2.9l9.1 9.1c1.9 1.9 2.9 4.4 2.9 7.1v2.9h-4c-1.1 0-2 .9-2 2s.9 2 2 2h4v8h-4c-1.1 0-2 .9-2 2s.9 2 2 2h4v2.9c0 2.7-1.1 5.2-2.9 7.1l-9.1 9.1c-1.9 1.9-4.4 2.9-7.1 2.9h-8.9z" fill="url(#SVGID_00000052813150282423585190000006779284605935669923_)"/><path class="st4" d="M89.8 40h9.3v3.5H85.4V22.2h4.4V40zM110.6 43.5c-.2-.4-.3-.9-.4-1.4-1 1.1-2.4 1.7-4 1.7s-2.8-.4-3.9-1.3c-1-.9-1.5-2-1.5-3.4 0-1.7.6-3 1.9-3.9 1.2-.9 3.1-1.4 5.4-1.4h1.9v-.9c0-.7-.2-1.3-.6-1.8-.4-.4-1-.7-1.8-.7-.7 0-1.3.2-1.7.5-.4.3-.6.8-.6 1.4h-4.2c0-.9.3-1.8.8-2.5.6-.8 1.4-1.4 2.4-1.8 1-.4 2.2-.7 3.5-.7 2 0 3.5.5 4.6 1.5 1.2 1 1.7 2.4 1.7 4.1v6.9c0 1.5.2 2.6.6 3.4v.2h-4.1zm-3.5-2.9c.6 0 1.2-.1 1.7-.4.5-.3.9-.7 1.2-1.1v-2.7h-1.6c-2.1 0-3.2.7-3.4 2.2v.2c0 .5.2 1 .6 1.3.3.3.8.5 1.5.5zM126.4 31.6c-.6-.1-1.1-.1-1.5-.1-1.6 0-2.7.5-3.1 1.6v10.4h-4.2V27.7h4l.1 1.9c.8-1.5 2-2.2 3.5-2.2.5 0 .9.1 1.3.2l-.1 4zM137.2 43.5c-.2-.4-.3-.9-.4-1.4-1 1.1-2.4 1.7-4 1.7s-2.8-.4-3.9-1.3c-1-.9-1.5-2-1.5-3.4 0-1.7.6-3 1.9-3.9 1.2-.9 3.1-1.4 5.4-1.4h1.9v-.9c0-.7-.2-1.3-.6-1.8-.4-.4-1-.7-1.8-.7-.7 0-1.3.2-1.7.5-.4.3-.6.8-.6 1.4h-4.2c0-.9.3-1.8.8-2.5.6-.8 1.4-1.4 2.4-1.8 1-.4 2.2-.7 3.5-.7 2 0 3.5.5 4.6 1.5 1.2 1 1.7 2.4 1.7 4.1v6.9c0 1.5.2 2.6.6 3.4v.2h-4.1zm-3.5-2.9c.6 0 1.2-.1 1.7-.4.5-.3.9-.7 1.2-1.1v-2.7H135c-2.1 0-3.2.7-3.4 2.2v.2c0 .5.2 1 .6 1.3.3.3.8.5 1.5.5zM149.8 38.3l2.9-10.7h4.4l-5.3 15.8h-4l-5.3-15.8h4.4l2.9 10.7zM166.1 43.8c-2.3 0-4.2-.7-5.7-2.1-1.5-1.4-2.2-3.3-2.2-5.7v-.4c0-1.6.3-3 .9-4.3.6-1.3 1.5-2.2 2.6-2.9 1.1-.7 2.4-1 3.9-1 2.2 0 3.9.7 5.1 2.1 1.2 1.4 1.9 3.3 1.9 5.8V37h-10.1c.1 1 .5 1.9 1.2 2.5.7.6 1.6.9 2.6.9 1.6 0 2.9-.6 3.8-1.8l2.1 2.3c-.6.9-1.5 1.6-2.6 2.1-1 .5-2.2.8-3.5.8zm-.5-13c-.8 0-1.5.3-2.1.8-.5.6-.8 1.4-1 2.4h5.9v-.3c0-.9-.3-1.7-.8-2.2-.4-.5-1.1-.7-2-.7zM179.5 43.5h-4.2V21h4.2v22.5zM203.6 38.3c0-1.2-.4-2.1-1.2-2.8-.8-.7-2.3-1.3-4.6-2-2.2-.6-3.8-1.3-4.8-2-1.4-1-2.2-2.4-2.2-4.1 0-1.6.7-3 2-4s3.1-1.5 5.2-1.5c1.4 0 2.7.3 3.8.8 1.1.5 2 1.3 2.6 2.3.6 1 .9 2.1.9 3.3h-1.8c0-1.5-.5-2.6-1.5-3.5-1-.9-2.3-1.3-4-1.3-1.6 0-2.9.4-3.9 1.1-1 .7-1.4 1.7-1.4 2.8 0 1.1.4 2 1.3 2.7.9.7 2.3 1.3 4.2 1.8 1.9.5 3.4 1.1 4.4 1.6 1 .6 1.7 1.2 2.2 2 .5.8.7 1.7.7 2.8 0 1.7-.7 3-2 4s-3.1 1.5-5.3 1.5c-1.5 0-2.9-.3-4.1-.8-1.2-.5-2.2-1.3-2.9-2.3-.6-1-1-2.1-1-3.3h1.8c0 1.5.6 2.7 1.7 3.6 1.1.9 2.6 1.3 4.5 1.3 1.7 0 3-.4 4-1.1.9-.8 1.4-1.7 1.4-2.9zM218.9 43.5c-.2-.5-.3-1.2-.3-2.2-.6.8-1.4 1.4-2.4 1.9-.9.4-2 .6-3 .6-1.5 0-2.8-.4-3.7-1.3-.9-.8-1.4-1.9-1.4-3.2 0-1.5.6-2.8 1.9-3.7 1.3-.9 3.1-1.3 5.4-1.3h3.2v-1.8c0-1.1-.4-2-1.1-2.7-.7-.7-1.7-1-3-1-1.2 0-2.2.3-3 .9-.8.6-1.2 1.4-1.2 2.3h-1.8c0-1.3.6-2.3 1.8-3.3 1.2-.9 2.6-1.4 4.3-1.4 1.8 0 3.2.4 4.2 1.3s1.6 2.1 1.6 3.7v7.5c0 1.5.2 2.7.5 3.4v.2h-2zm-5.5-1.3c1.2 0 2.2-.3 3.1-.8.9-.6 1.6-1.3 2-2.3v-3.5h-3.1c-1.7 0-3.1.3-4.1 1-1 .6-1.5 1.5-1.5 2.5 0 .9.3 1.6 1 2.2.7.6 1.6.9 2.6.9zM226.7 27.7l.1 2.7c.6-1 1.3-1.7 2.2-2.2.9-.5 1.9-.8 2.9-.8 1.7 0 3 .5 3.8 1.4.8 1 1.2 2.4 1.3 4.3v10.4h-1.7V33.1c0-1.4-.3-2.5-.9-3.2-.6-.7-1.5-1-2.8-1-1.1 0-2 .3-2.9 1-.8.7-1.4 1.6-1.8 2.7v10.9H225V27.7h1.7zM247.4 42.3c1.2 0 2.2-.3 3.1-1 .8-.7 1.3-1.6 1.3-2.7h1.7c0 1-.4 1.9-.9 2.7-.6.8-1.3 1.4-2.2 1.9-.9.4-1.9.7-3 .7-2.1 0-3.7-.7-5-2.2-1.2-1.4-1.8-3.4-1.8-5.8v-.5c0-1.6.3-2.9.8-4.1.5-1.2 1.3-2.1 2.3-2.8 1-.7 2.2-1 3.6-1 1.7 0 3.2.5 4.3 1.6 1.1 1 1.7 2.4 1.8 4.1h-1.7c-.1-1.2-.5-2.2-1.3-3-.8-.8-1.8-1.1-3.1-1.1-1.6 0-2.8.6-3.7 1.7-.9 1.1-1.3 2.7-1.3 4.8v.5c0 2 .4 3.6 1.3 4.7.9.9 2.2 1.5 3.8 1.5zM259.7 23.6v4.1h3.3v1.4h-3.3v10.6c0 .9.2 1.5.5 2 .3.4.9.6 1.6.6.3 0 .8 0 1.4-.1l.1 1.4c-.5.2-1.1.2-1.9.2-1.2 0-2.1-.3-2.6-1s-.8-1.7-.8-3.1V29.1h-3v-1.4h2.9v-4.1h1.8zM276.8 41.5c-1.1 1.5-2.7 2.3-5.1 2.3-1.7 0-3-.5-3.9-1.5-.9-1-1.3-2.4-1.3-4.4V27.7h1.7v10.1c0 3 1.2 4.5 3.7 4.5s4.1-1 4.8-3.1V27.7h1.8v15.8h-1.7v-2zM284.7 27.7l.1 2.6c.6-1 1.3-1.7 2.2-2.2.9-.5 1.9-.7 2.9-.7 2.5 0 4.1 1 4.8 3.1.6-1 1.3-1.7 2.3-2.3.9-.5 2-.8 3.1-.8 3.4 0 5.1 1.9 5.2 5.6v10.6h-1.8V33.1c0-1.4-.3-2.5-.9-3.1-.6-.7-1.6-1-2.9-1-1.3 0-2.3.4-3.2 1.2-.9.8-1.4 1.8-1.5 2.9v10.5h-1.8V32.9c0-1.4-.3-2.4-1-3-.6-.7-1.6-1-2.9-1-1.1 0-2.1.3-2.8 1-.8.6-1.4 1.6-1.8 2.8v10.9H283V27.7h1.7z"/></svg>